<?xml version="1.0" encoding="UTF-8" standalone="no"?>
<svg
   version="1.0"
   width="414pt"
   height="603pt"
   viewBox="0 0 414 603"
   preserveAspectRatio="xMidYMid"
   id="svg3"
   sodipodi:docname="c485e3b8e0ab2c21c543349ce810909a.svg"
   xmlns:inkscape="http://www.inkscape.org/namespaces/inkscape"
   xmlns:sodipodi="http://sodipodi.sourceforge.net/DTD/sodipodi-0.dtd"
   xmlns="http://www.w3.org/2000/svg"
   xmlns:svg="http://www.w3.org/2000/svg">
  <defs
     id="defs3" />
  <sodipodi:namedview
     id="namedview3"
     pagecolor="#ffffff"
     bordercolor="#000000"
     borderopacity="0.25"
     inkscape:showpageshadow="2"
     inkscape:pageopacity="0.0"
     inkscape:pagecheckerboard="0"
     inkscape:deskcolor="#d1d1d1"
     inkscape:document-units="pt" />
  <metadata
     id="metadata1">
Created by potrace 1.16, written by Peter Selinger 2001-2019
</metadata>
  <g
     transform="matrix(0.1,0,0,-0.1,0,603)"
     fill="#000000"
     stroke="none"
     id="g3">
    <path
       d="M 0,3015 V 0 H 2070 4140 V 3015 6030 H 2070 0 Z m 3665,792 c 70,-29 134,-85 175,-153 33,-55 35,-63 35,-149 0,-85 -2,-93 -37,-155 -20,-36 -48,-76 -63,-90 l -27,-25 -36,40 c -21,22 -54,60 -75,85 l -38,45 -30,-18 c -38,-21 -71,-22 -109,-2 -37,19 -50,43 -50,93 0,26 6,45 20,57 11,10 20,23 20,29 0,6 -21,34 -48,61 -26,28 -58,65 -71,83 -29,41 -20,55 59,90 102,45 181,48 275,9 z M 1536,3549 c 29,-28 39,-70 24,-113 -8,-26 -20,-38 -51,-50 -38,-15 -43,-15 -84,3 -33,14 -45,27 -54,53 -15,44 -3,76 40,112 27,23 39,27 67,22 19,-3 45,-15 58,-27 z m 558,-139 c 32,-11 78,-36 102,-55 l 43,-35 3,37 c 3,36 5,38 41,41 l 37,3 -2,-333 -3,-333 -37,-3 -38,-3 v 40 c 0,23 -2,41 -5,41 -3,0 -29,-16 -58,-34 -71,-48 -129,-60 -243,-53 -109,6 -157,28 -231,105 -76,78 -88,110 -88,242 0,106 2,119 29,173 81,166 260,233 450,167 z M 761,3394 c 26,-14 57,-40 69,-57 l 23,-30 36,41 c 38,45 121,82 181,82 52,0 135,-35 174,-74 70,-71 77,-105 74,-379 l -3,-242 -115,-3 c -107,-3 -116,-1 -132,19 -22,26 -23,65 -3,99 8,14 20,36 27,50 7,14 25,43 39,65 71,109 89,257 38,311 -39,42 -77,57 -131,52 -61,-6 -96,-31 -125,-88 -22,-42 -23,-55 -23,-277 v -233 h -55 -55 v 188 c -1,245 -11,327 -47,364 -57,59 -172,63 -225,6 -65,-70 -57,-182 22,-298 101,-149 120,-202 83,-242 -14,-15 -33,-18 -135,-18 H 360 l 2,338 3,337 h 30 c 27,0 30,-3 33,-37 2,-21 7,-38 11,-38 4,0 22,15 40,34 29,30 54,41 136,60 36,8 98,-5 146,-30 z m 2011,24 c 22,-6 63,-32 90,-57 l 50,-45 31,37 c 89,103 279,100 359,-5 58,-76 61,-95 66,-344 5,-273 4,-277 -66,-272 l -47,3 -5,250 c -5,238 -6,252 -28,287 -26,42 -63,58 -134,58 -43,0 -54,-5 -91,-39 l -42,-40 -5,-258 -5,-258 -57,-3 -58,-3 v 228 c 0,125 -5,246 -10,268 -6,27 -21,51 -46,73 -32,28 -45,32 -92,32 -97,0 -143,-38 -158,-128 -8,-50 18,-142 55,-197 86,-125 101,-155 101,-197 0,-70 -15,-78 -147,-78 h -113 v 341 340 l 33,-3 c 29,-3 32,-6 35,-40 2,-21 7,-38 12,-38 4,0 20,14 35,32 47,56 154,81 237,56 z m 792,-109 26,-21 -2,-276 -3,-277 -67,-3 -67,-3 -6,33 c -4,19 -5,145 -3,282 3,247 3,248 27,267 30,25 62,24 95,-2 z m -2042,-6 c 17,-15 18,-37 18,-293 0,-309 5,-290 -70,-290 -74,0 -70,-18 -70,284 0,308 2,316 67,316 20,0 45,-7 55,-17 z m -335,-756 c 37,-35 38,-57 3,-57 -11,0 -24,9 -30,20 -8,14 -21,20 -45,20 -42,0 -55,-20 -55,-84 0,-38 4,-48 25,-62 21,-14 31,-15 50,-6 14,7 25,16 25,22 0,5 14,10 31,10 h 31 l -19,-32 c -36,-61 -137,-64 -173,-5 -23,37 -26,119 -6,156 33,59 108,68 163,18 z m 283,6 c 42,-39 51,-111 21,-170 -17,-35 -26,-42 -61,-48 -98,-17 -140,21 -140,125 0,64 2,70 31,94 43,37 107,36 149,-1 z m 296,-9 c 28,-34 29,-43 8,-51 -8,-3 -25,4 -38,16 -29,27 -81,28 -96,2 -18,-35 -12,-98 12,-121 27,-25 39,-25 72,1 14,11 35,19 46,17 20,-3 20,-3 0,-35 -13,-22 -29,-34 -54,-38 -86,-17 -136,29 -136,125 0,46 4,56 35,87 33,33 39,35 82,30 34,-4 51,-12 69,-33 z m 283,1 c -13,-12 -34,-33 -47,-47 l -24,-26 47,-64 46,-63 -28,-3 c -27,-4 -46,11 -86,69 -21,29 -37,16 -37,-32 0,-35 -3,-39 -25,-39 h -25 v 115 115 h 25 c 23,0 25,-4 25,-45 v -45 l 48,49 c 41,43 51,49 76,44 l 30,-6 z m 229,6 c 3,-18 -2,-21 -32,-21 h -36 v -95 c 0,-95 0,-95 -25,-95 -25,0 -25,0 -25,95 v 95 h -35 c -28,0 -35,4 -35,19 0,22 24,27 125,25 53,-2 60,-4 63,-23 z m 777,17 c 14,-6 25,-14 25,-17 0,-3 3,-16 6,-28 5,-19 2,-23 -15,-23 -12,0 -24,6 -27,14 -6,17 -46,28 -68,20 -33,-13 -18,-43 27,-55 93,-25 112,-49 87,-109 -10,-24 -20,-30 -55,-36 -67,-10 -125,17 -125,58 0,24 31,23 53,-2 18,-21 52,-26 76,-11 24,15 4,38 -48,56 -61,20 -81,38 -81,71 0,58 79,92 145,62 z m -592,-65 c 13,-38 28,-81 34,-98 6,-16 14,-38 18,-47 6,-15 2,-18 -19,-18 -19,0 -29,7 -36,25 -8,21 -16,25 -50,25 -34,0 -42,-4 -50,-25 -7,-18 -17,-25 -35,-25 -14,0 -25,2 -25,5 0,3 11,32 24,65 13,32 27,74 31,92 12,53 23,68 54,68 27,0 31,-5 54,-67 z m 299,-25 3,-93 58,-3 c 49,-3 57,-6 57,-22 0,-18 -7,-20 -83,-20 h -84 v 108 c -1,59 1,110 4,115 2,4 13,7 23,7 17,0 20,-9 22,-92 z"
       id="path1" />
    <path
       d="m 1870,3366 c -54,-20 -93,-47 -128,-87 -34,-39 -56,-85 -46,-100 3,-5 120,-9 270,-9 245,0 264,1 264,18 -1,45 -74,129 -140,160 -65,31 -166,39 -220,18 z"
       id="path2" />
    <path
       d="m 1367,2528 c -41,-32 -43,-116 -3,-143 29,-21 49,-19 74,8 31,33 30,90 -3,122 -27,28 -43,31 -68,13 z"
       id="path3" />
  </g>
</svg>
